<svg xmlns="http://www.w3.org/2000/svg" version="1.1" xmlns:xlink="http://www.w3.org/1999/xlink" xmlns:svgjs="http://svgjs.dev/svgjs" width="1440" height="560" preserveAspectRatio="none" viewBox="0 0 1440 560"><g mask="url(&quot;#SvgjsMask1028&quot;)" fill="none"><path d="M1464 560L0 560 L0 306.07Q37.04 271.11, 72 308.15Q119 235.15, 192 282.16Q235.45 253.62, 264 297.07Q316.63 277.7, 336 330.33Q392.69 315.02, 408 371.72Q438.37 330.09, 480 360.46Q506.17 266.63, 600 292.8Q667.5 240.31, 720 307.81Q775.55 291.37, 792 346.92Q817.32 300.24, 864 325.55Q891.35 280.89, 936 308.24Q986.2 286.44, 1008 336.65Q1045.49 254.14, 1128 291.63Q1177.44 269.07, 1200 318.52Q1255.54 302.06, 1272 357.6Q1326.64 292.24, 1392 346.88Q1395.23 278.12, 1464 281.35z" fill="rgba(49, 44, 133, 1)"></path><path d="M1536 560L0 560 L0 403.5Q54.27 385.77, 72 440.05Q87.21 335.26, 192 350.48Q259.53 298.01, 312 365.55Q384.89 318.44, 432 391.34Q462.59 349.93, 504 380.53Q564.65 369.18, 576 429.83Q616.56 350.39, 696 390.95Q722.17 345.12, 768 371.29Q819.84 351.13, 840 402.97Q883.53 374.5, 912 418.04Q914.74 348.78, 984 351.52Q1049.59 297.11, 1104 362.69Q1147.81 334.5, 1176 378.31Q1244.18 326.5, 1296 394.68Q1335.58 314.25, 1416 353.83Q1509.19 327.02, 1536 420.22z" fill="rgba(67, 45, 215, 1)"></path><path d="M1536 560L0 560 L0 502.53Q11.9 442.43, 72 454.33Q125.74 388.06, 192 441.8Q266.33 396.13, 312 470.47Q364.43 450.9, 384 503.33Q420.13 419.45, 504 455.58Q554.2 433.78, 576 483.99Q641.5 429.49, 696 494.99Q710.18 437.18, 768 451.36Q813.97 425.33, 840 471.3Q881.44 440.74, 912 482.18Q928.94 427.13, 984 444.07Q1007.99 396.06, 1056 420.05Q1110.65 402.71, 1128 457.36Q1151.33 408.69, 1200 432.02Q1254.47 414.49, 1272 468.95Q1296.54 421.49, 1344 446.02Q1373.81 403.83, 1416 433.64Q1508.51 406.15, 1536 498.66z" fill="rgba(124, 134, 255, 1)"></path><path d="M1488 560L0 560 L0 564.57Q44.55 489.13, 120 533.68Q164.45 458.13, 240 502.57Q283.99 474.56, 312 518.56Q358.53 445.09, 432 491.62Q490.69 478.31, 504 536.99Q563.16 524.15, 576 583.32Q624.47 511.79, 696 560.26Q725.55 517.81, 768 547.36Q794.82 502.18, 840 529.01Q857.5 474.5, 912 492Q961.44 469.44, 984 518.89Q1051.91 466.8, 1104 534.71Q1187.34 498.05, 1224 581.38Q1224.26 509.63, 1296 509.89Q1348.73 442.63, 1416 495.36Q1483.04 490.4, 1488 557.44z" fill="white"></path></g><defs><mask id="SvgjsMask1028"><rect width="1440" height="560" fill="#ffffff"></rect></mask></defs></svg>